<?xml version="1.0" encoding="UTF-8"?>
<svg width="90px" height="40px" viewBox="0 0 90 40" version="1.1" xmlns="http://www.w3.org/2000/svg" xmlns:xlink="http://www.w3.org/1999/xlink">
    <!-- Generator: Sketch 58 (84663) - https://sketch.com -->
    <title>Logo_Ui_Lib</title>
    <desc>Created with Sketch.</desc>
    <g id="Logo_Ui_Lib" stroke="none" stroke-width="1" fill="none" fill-rule="evenodd">
        <g id="Artboard" transform="translate(43.758654, 19.813773) rotate(11.000000) translate(-43.758654, -19.813773) translate(28.258654, -0.686227)">
            <g id="undraw_in_the_pool_c5h0" transform="translate(18.280590, 12.528646)">
                <path d="M2.5307037,9.60184795 C2.52206261,9.55322137 2.5321999,9.50261317 2.55840933,9.4635337 C2.58461875,9.42445422 2.62423213,9.40088186 2.66667425,9.39910953 C2.73465953,9.39910953 2.81488214,9.41024026 2.83187848,9.48815541 C2.83951405,9.55299898 2.82033333,9.61822551 2.78020966,9.66386206 C2.74674746,9.71253288 2.69301614,9.73557729 2.64058063,9.7237464 C2.58814515,9.71191551 2.54560122,9.66714878 2.53002386,9.6074133 L2.5307037,9.60184795 Z" id="Shape" fill="#000000" opacity="0.05"></path>
                <path d="M3.06901551,3.29581478 C3.06901551,3.29581478 2.999141,5.15178334 3.331984,5.35394162 C3.66482707,5.55609991 3.59119601,4.70081486 3.59119601,4.70081486 C3.59119601,4.70081486 3.41387989,3.43654803 3.06901551,3.29581478 Z" id="Shape" fill="#000000" opacity="0.05"></path>
                <path d="M0.625753012,3.10763333 L0.272126969,3.29581478 L0.59193432,0.510418522 L0.752205556,0.595177925 C0.783818692,0.612285337 0.815431828,0.627837516 0.845574606,0.642612077 L0.625753012,3.10763333 Z" id="Shape" fill="#FFFFFF"></path>
                <path d="M5.73899444,2.96322278 L5.52588524,3.05004452 L5.08908712,0.254694322 C5.18355038,0.245392 5.27196798,0.234539277 5.35131708,0.223686554 L5.73899444,2.96322278 Z" id="Shape" fill="#FFFFFF"></path>
            </g>
            <g id="myfaceillustration" transform="translate(0.867850, 0.627568)">
                <g id="face" transform="translate(5.029940, 10.617254)">
                    <polyline id="Shape" fill="#515151" points="1.68120281 13.5625339 1.93133299 15.4733225 2.17326217 16.3026861 2.78423588 17.1279842 3.13687842 18.3313745 3.13687842 19.2867688 3.41161156 19.7868263 3.85036449 19.5225683 3.32550117 17.4938799 3.41161156 15.2741127 3.12047644 14.4081595 2.80883884 13.5625339 2.79653736 13.2332277 2.80883884 13.0462144 2.79243686 12.7738254 2.49720125 12.7006462 1.68120281 13.5625339"></polyline>
                    <polygon id="Shape" fill="#FFCD94" points="5.35934652 24.0678059 4.64175995 23.0026429 4.17430357 21.722008 3.85036449 20.8316617 3.70684717 20.441373 3.70684717 20.0510843 3.54692788 20.4779626 3.39110909 20.6121243 3.17788336 20.5430107 2.92775319 20.3885214 2.7678339 20.1527219 2.67762302 19.904726 2.67762302 19.6160749 2.6120151 19.2867688 2.6120151 19.1322795 2.26757355 18.7663838 1.94363447 18.3842261 1.59099193 17.8882341 1.24655038 17.3922422 1.02512366 16.9816259 0.774993492 16.5669441 0.631476179 16.0953452 0.43055194 15.8188907 0.24602968 15.4001434 0.168120281 14.916348 0.0902108825 14.4732076 0.00820098934 14.131705 0.00820098934 13.7373507 0.155818797 13.4243066 0.393647488 13.099066 0.639677167 12.9811663 0.906209319 12.9811663 1.17274147 13.0258868 1.42287165 13.1844417 1.68120281 13.5625339 1.93133299 13.9609537 2.01744338 14.4081595 1.93133299 15.1521474 2.09535277 15.8066942 2.17326217 16.3026861 2.64481906 16.7214334 2.78423588 17.1279842 3.03026556 17.6930898 3.13687842 18.3313745 3.41161156 19.4046685 3.41161156 19.7868263 3.85036449 19.5225683 3.66584223 18.7379252 3.48131997 18.2419333 3.32550117 17.4938799 3.27219474 17.0913946 3.19018485 16.8027436 3.03026556 16.4205858 2.87444676 15.8595458 2.90315022 15.4123399 2.87444676 15.1643439 2.94005467 14.8756929 2.88674824 14.2739977 2.80883884 13.5625339 2.79653736 13.2332277 2.74323093 12.7982184 3.70274668 10.4686825 3.5346264 9.78567718 3.51002343 9.09047534 3.41161156 8.39933901 3.41161156 8.00498477 3.48131997 7.29758645 2.97695912 7.08618 2.79653736 7.00893537 2.51770372 6.94388726 2.44799531 6.76093939 2.32087998 6.51294344 2.34548295 6.08199962 2.38648789 5.66325229 2.4561963 4.85828178 2.68172351 4.18340748 2.79653736 3.84190483 3.0712705 3.50446769 3.42801354 3.24020968 3.96927883 2.92716558 4.71146838 2.87431398 5.3019396 2.96782067 5.98672219 2.65071106 6.35986721 2.23196376 6.6920073 1.73597181 7.46700079 1.48797584 8.16818537 1.25217639 8.94727934 1.10581811 9.60745898 0.88628069 10.4808644 0.589498624 11.2599583 0.589498624 11.9324395 0.374026714 12.6049206 0.191078865 13.3061052 0.0203275388 14.0687972 0.0609826162 15.0324134 0.113834217 15.9181203 0.150423787 16.6193049 0.491926438 17.2384796 0.768380966 17.5173132 0.93913229 18.029875 1.51236889 18.5711403 1.77662689 19.0755012 2.17911216 19.3256314 2.61412149 19.8668966 4.39481389 19.8668966 5.06155716 19.985811 5.68764535 19.8791981 6.27714399 20.1826347 6.89103564 20.1826347 7.07804903 22.290289 11.8753482 22.4256053 13.4243066 22.5076152 15.1643439 22.5732231 15.6887944 22.6265296 15.9245939 22.6265296 16.2782931 22.6265296 16.6319922 22.6265296 17.8109895 22.6265296 18.7379252 22.5732231 19.4209306 22.4010024 20.0754773 22.2943895 20.4657661 22.0442593 21.2666711 21.6998177 22.0879037 21.3963811 22.7831055 20.9330253 23.4620453 20.342554 24.3036054 19.7069774 25.1126414 18.9401848 25.7427951 18.5178339 26.1859355 17.9765686 26.5518312 16.9063395 27.0884782 15.7212965 27.4055878 12.9329602 27.3242776 11.546993 27.1535263 10.0421114 26.8811373 9.50084615 26.6453378 8.43471751 26.214394 7.70482945 25.7956467 7.02004686 25.3484409 6.30656078 24.9540866 5.76529551 24.4987498"></polygon>
                    <polygon id="Shape" fill="#FCD6B1" points="14.9586045 1.69531674 15.6187842 2.76047977 15.6187842 4.71192349 14.4829472 5.53722159 10.9483207 6.01288597 7.67202553 5.71610391 6.10973705 6.42350224 5.63407968 7.13090061 5.1379198 8.85061037 5.10511587 10.6963509 5.36754753 16.6604508 6.10973705 19.0021833 6.64690183 21.0837232 5.85550636 22.4050133 4.06359021 20.0388877 3.48131997 18.2419333 2.94005467 14.8756929 2.98926061 11.4647319 3.18198386 7.28945543 4.17020307 4.59402376 5.3019396 2.96782067 7.33578496 2.76047977 8.7545561 2.22789825 10.6120802 1.69531674 12.6090211 1.3090935 13.9211794 1.3090935"></polygon>
                    <polygon id="Shape" fill="#8C6239" points="1.12353554 16.2417035 1.22194741 15.981511 1.22194741 15.5343051 1.22194741 14.9651341 1.12353554 14.5911073 0.988219214 14.1886221 0.742189532 13.9812812 0.627375685 14.2861943 0.627375685 14.5097972 0.627375685 14.6805485 0.721687062 14.9651341 0.721687062 15.21313 0.820098934 15.5912223 0.922611299 15.981511"></polygon>
                    <polygon id="Shape" fill="#8C6239" points="1.93133299 17.4694868 2.26757355 17.8679066 2.55460817 18.2012782 2.55460817 18.3882916 2.24297058 18.3882916 2.09535277 18.1077716"></polygon>
                </g>
                <g id="hair">
                    <polygon id="Shape" fill="#3F3F3F" points="5.87550891 23.8624435 5.30691126 23.4025329 4.89076371 22.3728214 4.59822435 21.8111606 4.40457152 21.2169398 4.28508363 21.5262602 4.14087409 21.0500696 3.87717663 20.647139 3.48987099 20.8872694 3.48987099 20.3866586 3.25089518 20.2442084 3.25089518 19.6988277 2.84298818 19.6988277 2.45980282 19.1737969 2.45980282 19.8168578 1.97773091 18.9621566 1.75935645 18.1318755 1.40089272 17.3952044 1.15779663 18.2743257 1.42561436 18.8685465 0.968264089 18.7260963 0.704566633 17.5376546 0.704566633 16.8254036 0.968264089 15.4700917 1.03418845 15.2747315 0.704566633 15.0671612 0.333742091 14.7334207 0.0370824545 14.24909 0.0370824545 13.4839289 0.387305636 12.9181981 0.71280718 13.1379785 0.964143818 13.528699 1.38441164 13.6385892 1.27316427 13.2926387 1.19075882 12.9181981 1.10423309 12.6943478 1.30200618 12.6943478 1.66459018 12.4867775 1.87472409 12.3890974 2.1136999 12.1815271 2.17138373 11.7948766 2.1136999 11.3227559 2.18374454 11.0989056 2.59165154 10.7407451 2.55044882 10.2686244 2.77706381 10.0325641 3.05724236 9.65812359 3.29621818 9.3406631 3.716486 8.9662226 3.95546181 8.6894622 4.31804581 8.0382613 4.78363661 7.24461016 4.43341346 7.35857033 4.14911463 7.3300803 4.305685 7.02482987 4.55702164 6.87016965 4.93608673 6.8172596 5.31515182 6.42653903 5.48408301 6.14977863 5.69421691 5.73463804 5.94555352 5.31949749 6.254574 4.88807688 6.63363909 4.43223624 6.95502035 4.37525614 7.09098935 4.04965569 7.46181392 3.90313548 7.76671406 3.90313548 8.38063473 3.81766536 8.85858636 3.81766536 8.85858636 3.67521516 8.6731741 3.33333468 8.51248347 3.16239444 8.51248347 2.88970406 8.85858636 2.79609393 9.00691617 2.57224361 9.27061365 2.62922369 9.61671654 2.40130338 10.0411046 2.61701368 10.0987884 2.40130338 10.3830873 2.40130338 10.5108157 2.21815311 10.8198362 2.21815311 10.9475646 2.29955323 11.1288566 2.36467332 11.2689459 2.50305351 11.3925541 2.57224361 11.5656055 2.47863348 11.4955609 2.21815311 11.2895473 2.17338305 11.1206161 2.08384293 10.968166 1.95767275 11.0052484 1.82336256 11.2689459 1.82336256 11.4749595 1.88034264 11.6109285 1.88848265 11.6686124 1.72975243 11.5326434 1.62800229 11.3925541 1.58323222 11.2318634 1.4936921 11.6686124 1.41229198 12.0064747 1.59544224 12.2701722 1.28612181 12.5050277 1.28612181 12.5833129 1.45706205 12.6615981 1.28612181 12.8799725 1.11925157 13.0200618 1.24135174 13.1766322 1.62800229 13.1766322 1.98209279 13.3332025 1.96581276 13.506254 2.04314287 13.6175013 1.7826625 13.6175013 1.59544224 13.6957865 1.31868185 13.8976799 1.11925157 14.1737382 1.11925157 14.3509099 1.2087917 14.5692843 1.59544224 14.7588169 1.28612181 14.9318684 1.50590212 14.9318684 1.7053324 15.2120469 1.7053324 15.6323147 1.75010246 15.8218473 1.7053324 15.8218473 1.27391179 16.1514691 1.79894253 16.3533624 1.64428231 16.4604895 1.81522255 16.6665032 1.55067218 16.7283073 1.30240183 16.8065924 1.00936142 16.8065924 0.606430854 17.0249669 0.777371092 17.0249669 0.516890728 17.0249669 0.130240183 17.2763035 0.606430854 17.2763035 0.0366300515 17.5441212 0.362230509 17.7460146 0.777371092 17.857262 1.0663415 18.1786432 1.10704156 18.3805366 1.08669153 18.7142787 0.899471263 18.8255261 0.777371092 19.1386668 0.382580538 19.1386668 0.647130908 19.1386668 0.956451344 19.4270859 1.13146159 19.7278658 1.15181162 19.8473537 1.36345191 20.1398931 1.19658168 20.4612743 1.09890154 20.9515868 0.879121236 21.1411193 0.602360845 21.4625006 0.394790555 21.4625006 0.590150827 21.3965763 0.887261245 21.5943493 0.602360845 21.7179575 0.516890728 21.7179575 0.736671034 21.5861088 0.956451344 21.5201844 1.05413148 21.6396724 1.11925157 21.8539265 1.03378145 22.162947 1.15181162 22.2865552 1.26170177 22.2288713 1.40415197 22.5996959 1.2087917 22.7768676 1.17623165 22.9087163 0.989011389 22.752146 1.43671202 22.542012 1.59137223 23.1188503 1.29426182 23.341345 1.1436716 23.4979154 1.0663415 23.7533723 1.43671202 24.0541521 1.75824247 24.2107225 2.05535289 24.2107225 1.74603245 24.3549321 1.9210427 24.5691862 2.18559307 24.8782067 2.42979341 25.0883406 2.52747355 25.0883406 2.3524633 24.9688527 2.21001311 25.3685192 2.4175834 25.5580517 2.60480366 25.7146221 2.87749404 25.83411 3.04436428 25.9371168 3.23972455 25.83411 2.54782358 26.2708589 3.54904498 26.5263158 4.07407572 26.7158483 4.45258627 26.7158483 4.61131649 26.9507039 4.75783669 27.0990337 4.83109677 27.0990337 5.10378716 27.2020405 5.25030737 27.3503703 4.91656691 27.2473635 5.60032785 27.5522637 5.79975816 27.6429097 6.5404992 27.6882327 6.2555988 27.7582773 5.81603818 27.8324422 6.23524877 27.8324422 6.45502906 27.8324422 6.86202965 27.7294354 7.25275017 27.9931329 7.72894087 27.9931329 7.29345026 28.1579438 7.65975075 28.1579438 7.96093117 28.3021533 8.28246162 28.3021533 8.86040244 28.0384559 9.13716283 28.3763183 9.35287316 28.6111738 9.61335349 28.508167 10.1221042 28.462844 10.3093245 28.462844 10.5575948 28.508167 10.7326051 28.6111738 10.9198253 28.8295482 10.5860849 28.932555 10.8058652 28.8171874 11.3390359 28.3309952 11.9495368 28.0961397 12.0350069 27.7170746 12.5152676 27.1443567 12.5600376 27.6264286 12.7472579 28.0549369 13.1257685 28.508167 13.6304491 28.8171874 14.0089597 28.7718644 14.25723 28.7265414 14.5299204 28.2897925 14.1554799 27.8901261 13.8054594 27.6552705 13.5897491 27.980772 14.1107098 28.0961397 14.3711902 28.1414627 14.7904008 27.7747584 14.6479506 27.465738 14.5909705 27.0701918 14.3874702 26.9671849 14.5299204 27.1731986 15.0956512 27.3050473 15.2136814 27.420415 15.3439216 27.5234218 15.661382 27.5975867 15.9381424 27.5522637 16.1986227 27.2597243 16.0398925 27.4368961 16.4591031 27.4533771 16.9230838 27.465738 17.4603245 27.3338892 17.822555 27.0990337 17.9527952 26.3656251 17.9690752 25.6445774 17.9975653 25.2201894 18.0382654 25.1007014 17.838835 24.9564919 17.4033444 25.0471379 16.5445733 24.9976946 15.8526723 24.9523716 15.1933314 24.8164026 14.5706205 24.6474714 13.8909295 24.4208564 13.1990285 23.6215235 12.5763177 22.6408986 11.7663865 22.0475793 11.3471759 20.8856624 11.0826256 19.6413401 10.9157553 18.4176191 10.9768054 16.905479 11.1558857 15.5045863 11.383806 13.8729583 11.8966267 12.2124883 12.7676079 10.9434443 13.3658988 9.61259628 13.8095294 8.57428756 13.9886097 7.96860745 14.4403803 7.79967626 14.989831 7.70078972 15.7305721 7.59366261 16.7358635 7.54421934 17.2486842 7.71315053 17.5132346 8.22406436 17.9609352 8.75969982 17.8632551 8.84622554 18.0097753 8.80502279 18.3190957 8.82974442 18.6691162 8.85858636 19.0028567 8.81738361 19.4302073 8.7761809 20.0732682 8.98219454 20.7285391 8.79266197 20.9971595 8.99455536 21.2006598 8.95335265 21.34718 8.24878599 21.6524304 7.40825035 21.9902409 6.72840538 22.3768915 6.52651199 22.6862119 6.46058765 22.9955323 6.48530928 23.3170628 6.58007552 23.6508032 6.62127828 23.8298835 6.63775935 23.9072136 6.41114438 23.9072136 6.14332664 23.8624435"></polygon>
                    <g id="Layer_3" transform="translate(9.188208, 3.500205)">
                        <polygon id="Shape" fill="#9E9E9E" points="0.78697209 7.97721119 1.09187227 5.82010818 0.972384364 4.15547584 0.506793546 2.97110418 0.0741649091 0.773301088 0.0288419091 0.00814001142 1.18663854 2.12047298 1.450336 3.36589473 1.858243 4.42002623 1.70991318 4.91656691 1.97773091 5.86487823 1.82940109 6.75213948 1.40913327 7.43997046 1.15779663 8.08710136 0.778731544 8.33537172"></polygon>
                        <polygon id="Shape" fill="#A0A0A0" points="2.51748663 0.321530452 3.00779909 0.883191241 3.69176436 2.05128288 3.65056163 3.42694481 3.90601854 4.66015654 3.76592927 5.62067791 2.76882327 1.40008197"></polygon>
                    </g>
                    <g id="Layer_4" transform="translate(21.136999, 1.058201)" fill="#AFAFAF">
                        <polygon id="Shape" points="0.387305636 9.41392323 0.778731544 9.08425277 1.08363173 8.90517253 1.38029136 8.77493234 1.56570363 8.61620212 1.93652818 8.41270181 2.26202973 8.10338138 2.47216363 7.91209112 2.68229754 7.7533609 2.87183009 7.43997046 3.0654829 7.0492499 3.07784372 6.74806948 3.08608427 6.45909907 3.09844509 6.07651855 3.1108059 5.71428802 3.26737627 5.03459709 3.28385736 4.47293629 3.09844509 3.96418557 3.2014519 3.60195506 3.00779909 2.58038363 3.33330063 2.98331419 3.54755482 3.35368471 3.53931427 3.65893514 3.88129691 4.29385604 3.87305636 4.52177634 3.86481581 4.73341666 3.59699809 5.36426754 3.62996027 5.80789817 3.68352381 6.21896875 3.84009418 5.50671774 4.14499436 4.49735632 4.16147545 4.02930566 3.87305636 3.03215426 3.46926963 2.2751332 3.08608427 1.54660217 2.62049345 1.19658168 2.24554863 0.78958111 1.77995781 0.594220836 1.77583754 0 1.903566 0.219780309 2.28263109 0.459910647 2.46804336 0.614570863 3.07372345 1.16809164 3.35802227 1.46520206 3.70412518 2.05128288 3.91837936 2.42572341 4.19443763 3.02401425 4.46225535 3.78103531 4.44165398 4.38746615 4.42929316 4.81074675 4.29332418 5.55148779 4.27684308 6.00732843 4.52817974 5.22588734 4.74655416 4.16768586 4.81659881 5.46194769 4.62294598 5.80789817 4.23564036 6.60154927 3.68764409 7.44811047 3.70824545 8.22548156 3.37862363 8.70167222 3.45278854 7.73301088 3.29209791 7.14693005 2.92951391 9.26740302 2.82650709 10.3581645 2.62461372 10.2279244 2.64109482 9.72731366 2.54632854 9.20635295 1.66046991 10.0000041 2.12606073 8.90517253 1.10835336 9.54416342 0.552116546 9.96744402 0.634521999 9.48311331 0.00824054543 9.91860392"></polygon>
                        <g id="Layer_5" transform="translate(0.082405, 1.465202)">
                            <path d="M0.346102909,6.15791864 L0.531515182,5.78754814 C0.531515182,5.78754814 0.531515182,5.78347814 0.535635453,5.78347814 L0.935301907,4.81888676 C0.939422182,4.81074675 0.939422182,4.80260674 0.939422182,4.79853674 L1.07951145,3.60195506 C1.07951145,3.59788506 1.07951145,3.59788506 1.07951145,3.59381505 L1.24432236,2.849004 C1.24432236,2.844934 1.24844263,2.84086399 1.24844263,2.83679399 L1.43797518,2.37688334 C1.44209545,2.36874333 1.44209545,2.36060332 1.44209545,2.3483933 L1.47917791,1.70126239 L1.51214009,1.12332158 C1.51214009,1.11518157 1.51214009,1.10704156 1.51214009,1.09890154 L1.38441164,0.529100742 C1.38029136,0.512820719 1.38029136,0.492470692 1.38853191,0.47619067 L1.57394418,0.05698008 C1.60690636,-0.0325600458 1.74287536,-0.00407000572 1.73875509,0.0936101317 C1.73875509,0.101750143 1.73875509,0.109890154 1.73875509,0.11396016 L1.80879973,0.447700629 C1.80879973,0.451770634 1.80879973,0.455840638 1.80879973,0.459910647 L1.85000245,1.01750143 C1.85000245,1.02157143 1.85000245,1.02564144 1.85000245,1.02971145 L1.80055918,1.88848265 C1.80055918,1.89255266 1.80055918,1.89662267 1.80055918,1.90069267 L1.65222936,2.61294367 L1.43797518,3.80138534 L1.20311963,5.03459709 C1.20311963,5.0427371 1.19899936,5.0468071 1.19487909,5.05494711 L0.865257272,5.76719812 C0.865257272,5.77126813 0.861137001,5.77533813 0.861137001,5.77533813 L0.206013636,6.80097953 C0.189532545,6.8253996 0.160690636,6.84167962 0.127728454,6.84167962 L0.111247363,6.84167962 C0.0494432729,6.83760962 0.0123608182,6.7724895 0.0412027272,6.71957944 L0.346102909,6.15791864 Z" id="Shape"></path>
                        </g>
                    </g>
                </g>
                <g id="glass" transform="translate(6.287425, 17.723965)">
                    <polygon id="Shape" fill="#070707" points="0.209983385 5.89177978 0.152340887 5.63649634 0.0576424976 5.30422264 0.0329385702 4.98410532 0.0988157103 4.67614433 0.300564453 4.36818337 0.720531221 4.17368169 1.2187271 4.01159697 1.819856 3.64690634 2.29746527 3.52129067 3.23621452 3.19712122 4.14614252 2.94994201 4.94902018 2.73517975 5.64073013 2.56904291 6.11010476 2.46368784 6.41478653 2.41506242 6.92121707 2.35428064 7.57587115 2.30565523 8.15229613 2.26513405 8.72048645 2.26513405 9.32984999 2.26513405 9.93921354 2.26513405 10.5279905 2.26513405 11.0055997 2.26513405 11.3843933 2.20435227 11.6767231 2.13951838 12.1090419 2.01795484 12.5742992 1.83560952 12.9654447 1.6735248 13.7847916 1.34935534 14.4023898 1.07381131 15.0735132 0.810423632 15.7446365 0.61592196 16.5433969 0.401159697 17.4286209 0.259335562 18.1532695 0.137772017 18.7791023 0.0486254178 19.4131698 0.0162084726 20.0348853 0.0162084726 20.5619024 0.0162084726 21.0271597 0.0162084726 21.5418249 0.0162084726 21.8218027 0.0162084726 21.9165011 0.230970735 21.941205 0.332273688 21.9823783 0.478149943 22.0235515 0.705068558 22.0235515 0.863101165 22.0235515 1.02518589 22.0235515 1.17916638 22.0235515 1.3169384 22.0235515 1.45471042 21.8012161 1.64110785 21.5500596 1.91665188 21.4059533 2.21650863 21.3977187 2.43127089 21.3606628 2.95399413 21.2906683 3.67932328 21.2247911 4.36413127 21.1877353 4.74503036 21.1630313 5.0003138 21.0889195 5.25154514 20.9653999 5.66080904 20.825411 5.9809264 20.6195449 6.26862677 20.3436844 6.52796232 19.9978294 6.79135003 19.672561 6.9858517 19.2320077 7.2127703 18.7914543 7.39916776 18.326197 7.58151306 17.865057 7.68281601 17.2927493 7.7273893 16.7945535 7.75575415 16.3581174 7.75575415 16.1316647 7.75575415 15.9257987 7.67471179 15.802279 7.58961728 15.6417035 7.51667918 15.3164351 7.47210585 15.0488093 7.3181254 14.6494291 7.0344771 14.3570993 6.78324577 14.0935907 6.52391021 13.8877246 6.30104373 13.6818586 6.02144758 13.4512886 5.68512178 13.2824784 5.34879598 13.1424895 5.15834641 13.0313218 4.94358414 12.9242715 4.71666555 12.8048692 4.36818337 12.636059 4.11695204 12.4960701 3.92245037 12.1996229 3.78467835 11.8908238 3.8170953 11.701427 3.84951224 11.4420358 4.00349273 11.2855776 4.16557746 11.2197005 4.40465244 11.1785273 4.74503036 11.1455887 4.94358414 11.1167674 5.17455489 11.0261864 5.61218364 10.9438399 6.0538645 10.803851 6.56848354 10.6226889 7.07499828 10.470348 7.45184526 10.3221244 7.78006685 10.1080237 8.10018417 9.74981678 8.52565659 9.44101765 8.78499215 9.09928001 9.05243196 8.84400608 9.24288149 8.56814556 9.3806535 8.25522913 9.53868611 7.92996077 9.63593695 7.57587115 9.7372399 7.18472562 9.80207382 6.81004937 9.83449074 6.41066922 9.83449074 6.15127798 9.83449074 5.75601514 9.83449074 5.40192553 9.83449074 5.11371304 9.83449074 4.82138319 9.75750049 4.61963446 9.68456239 4.4302377 9.63188484 4.19555038 9.51437341 4.00203627 9.38875777 3.83734342 9.27124634 3.71794111 9.15778702 3.57795218 8.96733745 3.49148844 8.82551333 3.37620344 8.71610616 3.21151059 8.44866634 3.11269488 8.19743501 3.0385831 8.07587147 2.93153275 7.87731769 2.83271704 7.62203424 2.74625329 7.38295928 2.64743758 7.19656182 2.53626991 6.95343474 2.42921955 6.72651615 2.37569437 6.43881574 2.30569991 6.21189711 2.14100706 6.04981239 1.9557276 5.84315439 1.67574976 5.70538237 1.40812388 5.64054845 1.21049245 5.81073743 1.025213 5.99713488 0.827581577 6.27267892 0.695827295 6.46718055 0.572307658 6.4955454 0.448788017 6.46718055 0.415849448 6.40234667 0.358206951 6.28078314 0.312916417 6.13085475 0.234687313 6.04981239"></polygon>
                    <polygon id="Shape" fill="#898989" points="3.05505238 4.25067194 3.27327041 4.00349273 3.59442147 3.80493894 3.93204181 3.56991609 4.3355393 3.40783136 4.94078552 3.20522546 5.48427193 3.09176615 5.85483083 2.97830684 6.46831173 2.88916024 7.16825634 2.8364827 7.86820095 2.8364827 8.49815109 2.90536871 8.90988325 2.9458899 9.32984999 3.02288014 9.53159872 3.09176615 9.72923014 3.1930691 9.88157103 3.33084112 10.009208 3.48887373 10.0915544 3.64690634 10.1739009 3.84546013 10.2315434 4.06022239 10.2685993 4.25067194 10.3015378 4.37628759 10.3015378 4.6396753 10.3015378 4.89901085 10.342711 5.14619004 10.342711 5.45820314 10.3097725 5.74590355 10.2438953 6.13085475 10.1903702 6.40639878 10.1080237 6.74272459 10.0133253 7.10336313 9.8692191 7.43968893 9.72923014 7.7273893 9.56865464 7.92189097 9.34220197 8.18933079 9.07869342 8.42840575 8.80695021 8.61480317 8.4775645 8.82146122 8.0534804 9.01596289 7.625279 9.18209972 7.13943509 9.28340267 6.77711081 9.33202811 6.45595975 9.36039292 6.09363548 9.36039292 5.79718837 9.36039292 5.47603727 9.36039292 5.23311531 9.31581963 4.89137767 9.24288149 4.59081321 9.13347432 4.31495269 8.99975441 4.04320949 8.74852308 3.80028753 8.49729174 3.54089629 8.10018417 3.33914755 7.69902449 3.15386809 7.35459442 3.05505238 6.92912204 2.93976739 6.6738386 2.82036507 6.22810559 2.729784 5.8512586 2.67214151 5.45820314 2.67214151 5.11377312 2.67214151 4.86659389 2.76272257 4.63157104 2.82859971 4.44517362 2.89859417 4.3276622"></polygon>
                    <polygon id="Shape" fill="#898989" points="13.443054 3.82519953 13.3524729 3.45645678 13.3524729 3.11202674 13.443054 2.71897128 13.5871602 2.39480183 14.0318309 2.02605908 14.7111889 1.63300361 15.4111335 1.31288628 16.1851899 1.08191554 16.749263 0.91983082 17.3339226 0.826632104 18.2479679 0.713172794 19.0220243 0.713172794 19.5613934 0.826632104 20.0513546 0.964404121 20.3354498 1.17511427 20.5454331 1.58843032 20.6854221 2.05037178 20.7965897 3.14444369 20.7965897 3.64285422 20.7965897 4.18989017 20.7965897 4.72476977 20.6771874 5.24749299 20.5454331 5.55950609 20.2407514 5.95256155 19.9484216 6.30509584 19.5613934 6.58063987 19.0343762 6.8278191 18.3961914 7.06284195 17.7580066 7.19250971 17.0168888 7.26949996 16.4610505 7.26949996 15.9134467 7.1641449 15.5593571 7.0344771 15.3205524 6.86428817 14.9458762 6.61710894 14.6823676 6.41045094 14.4847362 6.17542808 14.2829875 5.89177978 14.0730041 5.55950609 13.9371325 5.30017054 13.8053782 4.95979262 13.661272 4.63562315 13.5542216 4.26688041 13.4759925 3.99133638"></polygon>
                    <polygon id="Shape" fill="#EFEFEF" points="1.46164905 4.69235281 1.4904703 4.59915412 1.55223012 4.53026809 1.63869387 4.43301725 1.72104029 4.356027 1.80750404 4.33576641 1.94749296 4.36007911 2.0710126 4.39654818 2.19041492 4.4613821 2.23158813 4.51405961 2.23158813 4.59510197 2.12042046 4.69235281 1.9927835 4.77744732 1.91455439 4.80581213 1.7416269 4.80581213 1.56869941 4.78555154 1.46164905 4.74908247"></polygon>
                    <polygon id="Shape" fill="#EFEFEF" points="20.825411 0.907674466 20.8624669 0.798267274 21.0024558 0.688860087 21.1136235 0.628078314 21.3030202 0.599713488 21.4471265 0.652391021 21.5459422 0.664547375 21.607702 0.688860087 21.6694618 0.753693977 21.5871154 0.863101165 21.4306572 0.976560475 21.3071376 1.04139437 21.1342101 1.04139437 20.9242267 1.01302954"></polygon>
                    <polygon id="Shape" fill="#2CBBFF" points="0.1935141 5.81478954 0.135871602 5.52708917 0.0576424976 5.13403371 0.0576424976 4.86659389 0.0988157103 4.67614433 0.255273919 4.49785113 0.333503023 4.83417693 0.428201412 5.21507607 0.506430515 5.52708917 0.61348087 5.81478954 0.745235152 6.06196876 0.654654082 6.27267892 0.494078552 6.42665937 0.403497485 6.24431407"></polygon>
                    <polyline id="Shape" fill="#FF6E9F" points="0.452905339 4.35197489 0.601128907 4.23446347 0.83993354 4.1291084 0.905810679 4.2425677 0.959335854 4.61536256 1.025213 4.80986423 1.09109014 5.00436591 1.19814049 5.35690019 1.26401763 5.5149328 1.09109014 5.63244423 0.860520144 5.89177978 0.745235152 6.06196876 0.506430515 5.52708917 0.374676236 4.99626169 0.255273919 4.49785113"></polyline>
                    <polygon id="Shape" fill="#AFAFAF" points="3.40914201 6.06196876 3.77970093 6.1349069 4.15437716 6.57658776 4.5866959 7.26949996 5.48838924 7.56935669 5.95364656 7.56935669 6.8512226 7.56935669 7.22589885 7.73954567 7.59645774 7.97051641 7.59645774 8.22985197 7.13120042 8.62695954 6.26244564 8.8376697 5.33193105 8.8376697 4.40141645 8.47297904 3.84146075 7.97051641 3.40914201 7.26949996 3.19092398 6.57658776"></polygon>
                </g>
                <g id="Layer_8" transform="translate(15.740244, 22.946969)">
                    <polygon id="Shape" fill="#8C6239" points="1.59229816 5.35734368 1.96574954 5.23961203 2.64288664 5.23961203 3.34464691 5.23961203 3.1025191 5.55220985 2.61826347 5.64558325 2.18325418 5.44259762"></polygon>
                    <polygon id="Shape" fill="#754C24" points="4.75637516 4.9879099 5.07237248 4.54946096 5.38836979 4.24498255 5.74950961 4.07447467 5.65512079 4.36677393 5.25294238 4.8214617"></polygon>
                    <polygon id="Shape" fill="#967264" points="0.119011976 4.27746026 0.119011976 5.000089 0.459632459 5.564389 0.701760274 5.63746379 0.447320874 5.63746379 0.307789593 5.564389 0.184673756 5.40200049 0.0861810861 5.24773145 0.0328308899 5.00820846"></polygon>
                    <polygon id="Shape" fill="#FCD6B1" points="3.08610366 0.00664316462 2.97940326 0.595301416 3.08610366 1.04592946 3.62370948 1.48843807 3.91097977 1.97966323 4.19004233 2.32473876 4.51424737 2.48306753 4.83434856 2.18264884 4.40344313 1.48843807 3.91097977 0.972854638 3.51700909 0.477569765 3.34464691 0.116255389"></polygon>
                </g>
                <g id="mus_lips" transform="translate(14.742928, 27.913104)">
                    <g id="mustache">
                        <g id="lips" transform="translate(0.901580, 1.801806)">
                            <path d="M0.11064848,2.14169228 L0.684381341,1.78542607 C0.696675616,1.77723604 0.713067982,1.76904601 0.725362257,1.764951 L1.26221229,1.60524546 C1.28680084,1.59705543 1.3072913,1.58477039 1.32778176,1.56839033 L1.73759095,1.20393409 C1.75398331,1.19164905 1.77037568,1.17936401 1.79086614,1.17117398 L2.19657723,1.01556345 C2.21706769,1.00737342 2.23755815,1.00327841 2.25804861,1.00327841 L2.47114939,1.00327841 C2.48344366,1.00327841 2.49573794,1.00327841 2.50803221,0.999183395 L2.766212,0.945948217 L2.88915475,0.921378131 L6.83151911,0.0859952922 C6.83561721,0.0859952922 6.83971531,0.0859952922 6.84791146,0.0819002785 L7.46672336,0.00819002785 C7.47901762,0.00819002785 7.49540998,0.00819002785 7.50770428,0.00819002785 L8.17569325,0.0941853202 C8.21257606,0.0982803339 8.24126272,0.11466039 8.26994934,0.139230473 L8.34781311,0.20884571 C8.41338255,0.270270919 8.42157875,0.372646267 8.36420547,0.442261504 L8.13061423,0.72891248 C8.11831997,0.745292535 8.10192757,0.757577576 8.08553521,0.769862617 L7.27001493,1.25307426 L6.39302328,1.74857095 C6.38892518,1.74857095 6.38892518,1.75266596 6.38482712,1.75266596 L5.47095261,2.33415793 C5.46685451,2.33415793 5.46275645,2.33825295 5.46275645,2.33825295 L4.84394456,2.6781391 C4.8316503,2.68632913 4.81525794,2.69042415 4.80296364,2.69451916 L4.04071856,2.87879479 C4.02842429,2.8828898 4.01203192,2.8828898 3.99973764,2.8828898 L2.96292041,2.8828898 L1.79906232,2.8828898 C1.79086614,2.8828898 1.78266995,2.8828898 1.77857186,2.8828898 L0.598321411,2.72727927 C0.594223319,2.72727927 0.590125228,2.72727927 0.586027136,2.72727927 L0.217198868,2.65356902 C0.147531307,2.64128398 0.0983542042,2.5880488 0.081961837,2.51843356 L0.0409809185,2.31777788 C0.0204904593,2.25225766 0.0491771023,2.18264242 0.11064848,2.14169228 Z" id="Shape" fill="#C9825D"></path>
                            <polygon id="Shape" fill="#DBAC98" points="1.73349285 2.11302718 1.8113566 2.07207704 2.008065 1.97379671 2.26624479 1.90008646 2.56130741 1.7936161 2.81948719 1.7936161 2.98750896 1.72400086 3.24978684 1.67895571 3.47927998 1.63391055 3.8194216 1.63391055 4.18415178 1.63391055 4.44233154 1.63391055 4.70051135 1.63391055 4.79066938 1.52744019 4.90131783 1.42915986 5.27014612 1.22440916 5.38899077 1.17936401 5.56520874 1.17936401 5.78240758 1.06470362 5.95862555 0.982803339 6.17172634 0.982803339 6.36023856 0.884523008 6.50367177 0.8230978 6.72496871 0.8230978 6.88479432 0.8230978 7.04871799 0.74119752 6.71677256 0.913188105 6.40531758 0.990993369 5.91354654 1.14250888 5.48734497 1.26945431 5.01196632 1.46601498 4.80706174 1.64210058 4.51609722 1.72400086 4.05711093 1.74857095 3.75795023 1.73219089 3.29486585 1.77723604 3.04488224 1.82228119 2.7129368 1.89189643 2.48344366 1.95332164 2.26624479 2.00655682 2.03675165 2.11302718"></polygon>
                            <polygon id="Shape" fill="#C9825D" points="3.27847348 0.696152368 3.42190669 0.524161783 3.57763418 0.524161783 3.88499107 0.524161783 4.24562316 0.438166489 4.56527434 0.356266211 4.75788462 0.196560668 4.90951403 0.237510807 5.11851671 0.143325487 5.3234213 0.217035738 5.47095261 0.30303103 5.61438582 0.364456239 5.74142667 0.41769142 5.11851671 0.55282688 4.29889835 0.790337688 3.63090938 0.962328272 3.34404295 0.962328272 3.17192309 0.962328272"></polygon>
                        </g>
                        <polygon id="Shape" fill="#494848" points="0.48357484 3.67322749 0.48357484 3.37019645 0.48357484 3.15316072 0.659792786 2.80098952 0.770441266 2.50614852 1.01222869 2.50614852 1.22942756 2.50614852 1.60235391 2.24406763 1.93839745 2.01065183 2.34820663 1.83047122 2.44656083 1.61343548 2.58589596 1.37592468 2.97931278 1.04422855 3.37272959 0.749387546 3.72516549 0.663392256 4.45872395 0.663392256 4.67592279 0.847667881 4.84804266 0.749387546 5.46275645 0.663392256 5.65536673 0.483211642 5.8356828 0.155610529 6.27008053 0.00819002785 6.60612406 0.155610529 6.99954087 0.30303103 7.33148631 0.483211642 7.942102 0.663392256 8.31912645 0.663392256 8.69615091 0.786242673 8.90925169 0.884523008 9.10596007 1.02375348 9.3026685 1.17936401 9.40102269 1.39639975 9.49937688 1.75266596 9.49937688 2.01065183 9.42151315 2.1785474 9.24529523 2.01065183 8.94613451 1.83866125 8.50763868 1.68714574 7.92161154 1.61343548 7.09789507 1.61343548 6.48727941 1.65438563 6.14303968 1.7936161 5.35210796 1.83866125 4.76198272 1.98608175 4.28660407 2.36691804 3.6186151 2.43653328 2.99980323 2.49795849 2.36869709 2.80098952 2.08592875 2.97298011 1.47531307 3.37019645 1.22942756 3.67322749 1.14746572 3.99263857 1.11058289 4.29157458 0.831912645 4.09501392 0.635204236 3.99263857"></polygon>
                        <polygon id="Shape" fill="#424848" points="4.15546514 4.3857599 4.70870755 4.41852003 5.08983006 4.3489048 5.61438582 4.1769142 6.06927405 4.02130367 6.3397481 3.78379286 6.66349734 3.50942693 6.97085421 3.32924632 7.15526838 3.23096598 7.42574244 3.28010615 7.65523559 3.30467623 7.85194397 3.46028676 7.92980775 3.48076183 8.01996574 3.52171197 8.09782951 3.529902 8.1838894 3.51352194 8.26994934 3.48485685 8.35191117 3.4725718 8.28634174 3.53399701 8.15930089 3.63637236 8.01586764 3.69779757 8.10602567 3.7059876 8.14700659 3.71008261 8.1920856 3.72646267 8.22077226 3.75512777 8.15930089 3.76331779 8.06094665 3.76331779 7.99537718 3.76741281 8.09782951 3.824743 8.07324095 3.8534081 7.99537718 3.8534081 7.92980775 3.86569314 7.97078866 3.90664328 7.99537718 3.93940339 8.01996574 3.9721635 7.92161154 3.95168843 7.95439626 3.99673358 7.96669056 4.04996877 7.88472873 4.02539868 7.90112109 4.09910893 7.85604207 4.12367902 7.76588403 4.14005907 7.80686495 4.18100921 7.83964971 4.25062445 7.74949168 4.29157458 7.63884323 4.31204965 7.65523559 4.41442498 7.64703938 4.49632529 7.53229284 4.48813527 7.53639089 4.5864156 7.49540998 4.68879093 7.36836912 4.65603084 7.38885958 4.78707126 7.26181878 4.75431116 7.30279969 4.87716157 7.29870159 4.98772696 7.1962493 4.88944663 7.15936644 4.84440148 7.20444546 5.00410703 7.183955 5.08600729 7.16346454 5.14743251 7.10609127 5.06143721 7.04461989 4.94677681 7.01593323 5.01229704 7.00363897 5.08191228 7.03642369 5.22523777 7.04871799 5.28256794 6.9298733 5.18019261 6.87659812 5.06962722 6.80693055 5.01229704 6.83971531 5.22523777 6.88069622 5.27437793 6.91757904 5.36037324 6.90118668 5.44227349 6.84381341 5.40541839 6.74955727 5.31532808 6.70038015 5.22933277 6.62251642 5.1720026 6.63071262 5.24980785 6.65939924 5.3317081 6.67579164 5.37675326 6.6880859 5.48322364 6.67579164 5.5610289 6.66759544 5.61426407 6.62251642 5.54874388 6.5733393 5.45455856 6.52006413 5.33989816 6.45039655 5.2129527 6.40941564 5.38084831 6.4299061 5.45455856 6.4340042 5.53645881 6.40531758 5.59788404 6.17992249 5.47912864 6.0774702 5.51188873 5.97501791 5.55283888 5.88485988 5.48731865 5.81929044 5.51598374 5.71683811 5.46274857 5.64307248 5.52007875 5.49554117 5.45046351 5.52012973 5.53645881 5.38899077 5.5651239 5.37259842 5.44227349 5.25785182 5.5651239 5.25785182 5.45046351 5.13490907 5.49550866 5.01196632 5.48731865 5.00377017 5.42589342 4.93410259 5.42589342 4.79476748 5.3317081 4.73329611 5.38494332 4.7169037 5.24980785 4.63084377 5.31942309 4.51199912 5.14743251 4.45872395 5.21704775 4.39725257 5.02048706 4.2743098 5.16790755 4.29070217 5.00001198 4.29889835 4.91811172 4.13907277 5.11057737 4.03662047 5.35218318 3.96695291 5.34399317 3.93007008 5.47093858 3.90957962 5.24161783 3.9218739 5.14333746 3.79073496 5.04505714 3.64320365 5.07781728 3.50386853 4.96725189 3.44239715 5.11467238 3.40961242 4.95087182 3.27437539 5.11057737 3.34814104 4.8607815 3.40551433 4.70926601 3.50796662 4.57413054 3.5202609 4.64784078 3.6186151 4.4676602 3.64730175 4.54956046 3.70877312 4.47585021 3.72516549 4.55775051 3.79893114 4.43080505 3.84401016 4.54546545 3.94646245 4.37347488 4.01203192 4.48813527"></polygon>
                        <polygon id="Shape" fill="#494848" points="0.0409809185 4.24243442 0.0286866429 3.84112306 0.180316041 3.6199923 0.33194544 3.23915601 0.561438582 2.98526515 0.934364942 2.75594437 1.17205427 2.5593837 1.37286077 2.37920309 2.01626119 2.00655682 2.2129696 1.99836679 2.46705129 1.80180612 2.59819023 1.67895571 2.67195589 1.4414449 2.72523108 1.24488423 2.94652804 1.10974877 3.15553072 1.10155875 3.45878952 0.966423283 3.6677922 0.958233257 3.9218739 0.950043227 4.13907277 0.847667881 4.38086017 0.839477856 4.67182469 0.831287825 4.8316503 0.921378131 4.94229879 1.11384379 5.10622246 1.2653593 5.23736136 1.33087952 5.48324691 1.16707897 5.47914881 1.04422855 5.54471828 0.896808049 5.69634765 0.798527714 5.8397809 0.597872033 6.04058739 0.475021616 6.30286524 0.466831586 6.52826033 0.380836294 6.77414583 0.372646267 7.01593323 0.364456239 7.29460349 0.438166489 7.50770428 0.54463685 7.6921184 0.626537129 7.9502982 0.618347104 8.22896842 0.679772312 8.45436346 0.802622729 8.76581848 0.90909309 8.96662497 0.986898354 9.20431431 1.00737342 9.5567502 1.10565376 9.88869564 1.31859448 10.0198346 1.48239504 10.2780143 1.74038092 10.35178 1.86323133 10.3599762 2.08436208 10.4214476 2.2645427 10.3148972 2.45291334 10.3230934 2.66994908 10.2288373 2.39967816 10.2452296 2.51843356 10.1263849 2.27273272 10.1550716 2.41605821 10.0936002 2.27273272 10.0157365 2.15397732 10.0362269 2.27682774 9.94197081 2.14169228 10.0567174 2.35872802 9.91738225 2.22359256 9.98295173 2.34644298 9.7944395 2.10074214 9.82722426 2.30958785 9.74526243 2.17035738 9.74936053 2.28501777 9.61822158 2.0884571 9.64690819 2.21130752 9.5526521 2.09664712 9.51167119 2.04750696 9.5608483 2.18673743 9.42561125 2.01474685 9.40102269 1.98198674 9.32725706 1.93284657 9.36823798 2.03522192 9.38872843 2.09255211 9.39692459 2.13350225 9.24529523 2.00655682 9.2944723 2.0884571 9.10596007 1.95741665 9.18382385 2.04750696 9.00350778 1.90418147 9.02399824 1.97789172 9.06088106 2.04750696 8.99531163 2.02703189 8.87646693 1.87551638 8.90105549 1.97379671 8.93793831 2.03931693 8.86007457 1.95741665 8.88466313 2.03112691 8.78630894 1.92875156 8.8027013 2.03112691 8.83138791 2.08026707 8.64697379 1.91646651 8.69615091 2.02293688 8.70434711 2.10074214 8.56501196 1.9697017 8.65516999 2.1171222 8.42567685 1.8837064 8.51173678 2.01884186 8.5404234 2.09255211 8.40928449 1.92465654 8.45846156 2.059792 8.34371501 1.88780142 8.39289209 2.05160197 8.21667416 1.77723604 8.28634174 1.98198674 8.27814554 2.04341195 8.1920856 1.93284657 8.23306652 2.05160197 8.11422187 1.87551638 8.15930089 2.00655682 8.17159515 2.07617206 8.06094665 1.93694159 8.09782951 2.06798203 7.99127912 1.96151167 8.03635809 2.0884571 8.0486524 2.12940724 7.942102 1.99017676 7.97898482 2.12531223 7.82735541 1.88780142 7.88882683 2.0884571 7.65933369 1.72809587 7.76588403 2.03112691 7.54868519 1.75266596 7.73309932 2.08026707 7.47901762 1.84685128 7.63474513 2.04750696 7.48721382 1.95332164 7.54868519 2.08436208 7.54868519 2.14988231 7.4380367 2.02293688 7.45852716 2.15807234 7.29460349 1.87961139 7.36427107 2.14169228 7.24542637 1.96151167 7.24542637 2.16216735 7.06920845 1.81818618 7.14297408 2.14988231 7.00363897 1.9697017 7.01593323 2.10074214 6.87250002 1.85094629 6.92577524 2.12121721 6.75365537 1.83456624 6.82742101 2.10074214 6.73316491 2.09664712 6.53235839 1.83456624 6.64300688 2.08436208 6.49957367 1.92465654 6.47498511 2.01065183 6.54055459 2.15807234 6.40531758 1.99017676 6.4299061 2.10483716 6.27008053 1.97789172 6.3397481 2.14578729 6.15123588 1.99836679 6.05288164 1.93694159 6.13484348 2.05569699 6.0733721 1.99836679 5.98731221 2.01884186 6.04058739 2.10074214 6.05697974 2.17035738 5.81929044 1.96151167 5.93813509 2.14169228 5.71274005 1.99017676 5.79060378 2.15397732 5.68815149 2.04750696 5.70044575 2.11302718 5.54062018 1.9697017 5.63077822 2.12531223 5.63077822 2.12531223 5.49144307 2.01884186 5.54062018 2.14988231 5.47095261 2.08026707 5.49144307 2.19902248 5.49554117 2.23997261 5.43406979 2.14578729 5.42997169 2.0884571 5.39308887 2.12121721 5.41767743 2.19492746 5.43406979 2.25635267 5.36440222 2.16216735 5.36850032 2.26044768 5.30702894 2.10893217 5.3193232 2.2932078 5.27424422 2.16216735 5.26604802 2.2645427 5.22096901 2.16626236 5.22506711 2.2645427 5.18818429 2.10893217 5.16769383 2.39967816 5.10622246 2.16626236 5.085732 2.27682774 5.02426062 2.16216735 5.01196632 2.28092275 5.04065298 2.43653328 4.96688731 2.21949755 4.97918161 2.36691804 4.90951403 2.18673743 4.96688731 2.50205351 4.87672931 2.30549284 4.88902357 2.53890863 4.79476748 2.2358776 4.79476748 2.33006292 4.73329611 2.2932078 4.77017892 2.36691804 4.64313807 2.22359256 4.72919801 2.44881832 4.67182469 2.34644298 4.67592279 2.59214381 4.5816667 2.42424824 4.59805905 2.56757373 4.49970486 2.42834325 4.49970486 2.51024353 4.43413539 2.42834325 4.462822 2.52252857 4.37266401 2.43243827 4.40135063 2.67404409 4.3234869 2.55119367 4.34397735 2.69451916 4.30299644 2.62899894 4.31529072 2.76003938 4.25381934 2.72318426 4.29889835 2.87060476 4.23742697 2.79689451 4.29070217 2.94022 4.24562316 2.89107983 4.2743098 3.01393024 4.2210346 2.94022 4.24972125 3.04259534 4.18824987 2.96479008 4.24152507 3.13678066 4.18005369 3.03850033 4.18824987 3.12859064 4.1226804 3.0589754 4.15956323 3.14497069 4.04071856 3.00574022 3.99973764 3.04669036 3.95056054 2.98526515 3.95056054 3.01802526 3.89728535 2.97707512 3.91367771 3.0303103 3.84401016 2.95250504 3.86450061 3.01802526 3.7702445 2.92383994 3.79893114 3.0016452 3.71287122 2.89517484 3.74565595 2.99345517 3.6677922 2.89926985 3.71287122 2.98936016 3.60632083 2.88698481 3.60632083 2.91974492 3.55714372 2.87060476 3.59812464 2.97707512 3.54484945 2.91564991 3.56533991 2.98526515 3.49157425 2.89107983 3.51206472 2.98117013 3.46288761 2.94022 3.4669857 2.99345517 3.43420097 2.96479008 3.43829906 3.07535545 3.40141624 3.02212027 3.40961242 3.08354548 3.35633722 3.0303103 3.36043532 3.10402055 3.3194544 3.0589754 3.32355249 3.12859064 3.25798302 3.04259534 3.28666966 3.19001584 3.22519829 3.13678066 3.23749256 3.2063959 3.18421736 3.1490657 3.20060974 3.19001584 3.13913836 3.14087568 3.17192309 3.25144105 3.11454981 3.2063959 3.08586316 3.16954077 3.10635362 3.23096598 3.1186479 3.29239119 3.06127461 3.21049091 3.0653727 3.28010615 3.02029369 3.21868094 3.00799942 3.26782111 3.0161956 3.3251513 3.01209751 3.36610144 2.98341087 3.31286626 2.9670185 3.28010615 2.9670185 3.33334133 2.94652804 3.31286626 2.95882231 3.37019645 2.9178414 3.3251513 2.94242995 3.38657651 2.94242995 3.41933662 2.90964521 3.37019645 2.90964521 3.43981169 2.85637002 3.35791141 2.87686048 3.43162166 2.83997765 3.39886155 2.84817383 3.43571668 2.85637002 3.46438177 2.82358528 3.43571668 2.83178147 3.4725718 2.80309483 3.43981169 2.77440818 3.40295657 2.78670246 3.44390671 2.79489864 3.47666682 2.75391772 3.43981169 2.77440818 3.48485685 2.73752535 3.4725718 2.75391772 3.52171197 2.70064253 3.4725718 2.7170349 3.53399701 2.68834825 3.51352194 2.69654444 3.54628205 2.65146542 3.50533192 2.65966161 3.54218704 2.6637597 3.57085214 2.62687687 3.53399701 2.63917115 3.57904217 2.63917115 3.59951724 2.61048451 3.57904217 2.58589596 3.56675712 2.58999405 3.59951724 2.54081694 3.58313718 2.55311122 3.61589729 2.5654055 3.6486574 2.50393412 3.60770726 2.50803221 3.66503746 2.51622839 3.69370256 2.52032649 3.73055768 2.45475702 3.65684743 2.5121303 3.81655297 2.4137761 3.71008261 2.34001044 3.63227735 2.36869709 3.72646267 2.364599 3.77969785 2.40967801 3.77969785 2.43016847 3.80836294 2.38918755 3.80836294 2.30312762 3.74284272 2.26624479 3.69370256 2.3113238 3.80426793 2.23755815 3.74693774 2.28263716 3.84521807 2.29083334 3.8820732 2.29493144 3.93121336 2.24165624 3.84931309 2.20477341 3.78788788 2.21706769 3.89026322 2.23755815 3.93940339 2.23755815 3.98035353 2.20887151 3.95168843 2.14740013 3.86569314 2.12690967 3.77560283 2.15149822 3.96397347 2.18018486 4.0008286 2.11871348 3.95987846 2.05724211 3.86159813 2.08183066 4.0008286 2.03265356 3.92302333 2.06543829 4.04996877 1.99986882 3.96397347 1.99986882 4.0294937 1.9588879 3.95168843 1.9588879 4.0294937 1.98757455 4.04587375 1.95069172 4.05815879 1.92200508 3.99673358 1.92610317 4.06225381 1.92610317 4.10320395 1.87282798 4.00492361 1.85233752 4.12367902 1.81955278 4.06634882 1.82774896 4.15234411 1.76627759 4.11548899 1.77857186 4.16462916 1.70070812 4.1482491 1.74988522 4.19738927 1.60235391 4.12367902 1.62694247 4.1482491 1.69661002 4.20967431 1.63104056 4.18100921 1.64743292 4.24652943 1.57776536 4.16872417 1.57366727 4.25881448 1.53678444 4.21376933 1.54498063 4.28747957 1.4589207 4.23014938 1.43843024 4.33252473 1.39335123 4.1769142 1.38105695 4.32433471 1.36056649 4.19738927 1.31548749 4.30385964 1.31138939 4.16462916 1.27040847 4.32842972 1.24172183 4.19738927 1.13926953 4.40213997 1.1556619 4.16462916 1.07370006 4.44309012 1.07370006 4.13596406 0.97944395 4.60279563 0.950757308 4.30795465 0.881089746 4.60689067 0.864697379 4.3529998 0.807324095 4.56594052 0.774539358 4.34480979 0.745852716 4.58232059 0.692577524 4.32842972 0.64340042 4.8566865 0.565536673 4.3857599 0.545046215 4.68469593 0.627008053 5.02048706 0.549144307 4.92630174 0.598321411 5.06553221 0.639302328 5.20066768 0.55734049 5.13924246 0.631106145 5.28256794 0.561438582 5.21704775 0.602419503 5.32351809 0.499967206 5.14743251 0.561438582 5.30304302 0.450790102 5.26618792 0.467182469 5.36037324 0.336043532 5.15971753 0.344239715 5.27028292 0.258179787 5.00820204 0.233591235 5.16790755 0.2008065 4.89763665 0.172119857 5.02867711 0.151629399 4.80754633 0.0860599287 4.63146076 0.0450790102 4.39394995"></polygon>
                    </g>
                </g>
                <g id="berad" transform="translate(8.412141, 25.729717)">
                    <polygon id="Shape" fill="#424848" points="0.00821968476 4.32756763 0.44797282 4.06393884 0.702783047 4.94405336 0.974032641 5.36991519 1.16719523 5.96206596 1.53708105 6.12429907 1.70147474 6.50960265 1.89874717 6.74484059 2.13711803 6.86651544 2.38781842 7.10175342 2.49878416 7.30454477 2.74948454 7.65334589 3.07827194 7.90480717 3.49336601 8.03053781 3.90846009 8.3874506 4.27834591 8.54562786 4.52493643 8.74436343 4.75919748 8.47667881 4.94003055 8.74436343 5.05099627 8.99176887 5.50718877 9.13777863 5.84419585 9.13777863 6.62506591 9.54741718 6.85932691 9.34868166 7.2251029 9.54741718 7.43881469 9.54741718 7.89500719 9.54741718 8.10460913 9.47441229 8.23612412 9.99355818 8.70464613 9.81510179 9.08686148 10.1355121 9.32112248 10.1355121 9.78964454 10.2247403 10.1513106 10.4478108 10.5417457 10.2247403 10.8787528 10.4478108 11.1664417 10.0827864 11.5116685 10.3869734 11.836346 10.0665631 12.0336185 10.2774661 12.5062503 10.0665631 13.0323102 9.63664539 13.7350932 9.70559444 14.2981416 9.7988785 14.6598077 9.83132508 15.1118904 9.458189 15.5310943 9.38518412 15.8187833 9.11749951 16.1064722 9.06477375 16.3078545 8.8335916 16.5256762 8.44017635 16.5955435 8.15221265 16.5955435 7.74257411 16.7434978 7.49111279 16.9572096 7.30454477 17.2120198 7.38566128 17.3024364 7.1342 17.6641025 7.04497183 17.6641025 6.74484059 17.9559013 6.83001297 17.9559013 6.49337931 18.2435903 6.39198363 18.0791966 5.96206596 18.4244233 6.12429907 18.5394989 5.75927461 18.6258056 5.33341273 18.7696501 4.94405336 18.8970552 4.48168906 19.0039111 4.06393884 19.0039111 3.6705236 19.0039111 3.4758439 19.266941 3.28116419 19.1847442 2.93641888 19.1477556 2.61600854 19.266941 2.3564356 19.110767 1.73183821 19.1970737 1.42765117 19.266941 1.18024571 19.266941 0.827388746 19.2011835 0.0283907903 19.4190052 0.811165436 19.5299709 1.22485981 19.5299709 1.51282354 19.4190052 1.5817726 19.4888725 1.7156149 19.4313347 1.83323389 19.4272249 1.96707618 19.4642135 2.11308596 19.4806528 2.30776567 19.5299709 2.46594293 19.5628497 2.57139443 19.5628497 2.66873429 19.4395544 2.67684594 19.3409182 2.66873429 19.476543 2.80257658 19.5628497 2.84719068 19.5135316 2.99320046 19.4190052 3.07837283 19.4436642 3.24466175 19.4066757 3.44339728 19.5176414 3.4758439 19.6244973 3.54479296 19.4066757 3.63807698 19.4888725 3.75569597 19.501202 3.84086834 19.6244973 3.81653338 19.6614859 3.87331496 19.6614859 3.9990456 19.5299709 4.177502 19.4642135 4.14505538 19.3902363 4.37218171 19.4642135 4.55469394 19.2957099 4.76154113 19.2094032 5.15495634 19.0984375 5.42264095 19.0121308 5.69843719 18.954593 5.89717271 19.0121308 6.03912668 18.929934 6.24597387 18.954593 6.42443026 18.8682863 6.59477499 18.7573206 6.89490623 18.6463548 7.12608838 18.6340253 6.74484059 18.6134761 7.22342822 18.5353891 7.71418332 18.486071 7.23153985 18.4901808 6.99630191 18.4285332 7.41810791 18.4244233 7.70607165 18.4038741 7.90075134 18.3504462 7.56006188 18.3504462 7.4748895 18.3052379 7.81152316 18.25181 7.99809122 18.1901623 7.57222934 18.0833064 8.18871507 17.8531552 8.57401866 17.8901438 8.20088258 17.754519 8.49290211 17.6641025 8.7119168 17.5695761 8.87820569 17.520258 8.70786096 17.3517545 8.99988054 17.4873793 9.20672772 17.5531367 9.51902638 17.4503907 9.36490495 17.4257317 9.68531532 17.3887431 9.4460215 17.4216218 9.93272076 17.3229856 9.61231043 17.4092923 10.257187 17.2777773 9.99761402 17.2407887 9.78671099 17.2901068 10.301801 17.3969627 10.4964807 17.4503907 10.8939518 17.2983265 10.6181556 17.1380427 10.2531311 17.1257132 10.6627697 17.1750313 10.8939518 17.261338 10.9223426 17.2284592 11.076464 17.2366789 11.2224738 17.1174935 10.9466776 17.0558458 10.6384347 17.0640655 11.100799 17.0106376 11.3238695 17.0024179 11.4455443 16.8832325 10.9020635 16.9037817 10.6059881 16.7311683 11.3238695 16.7229486 10.9466776 16.6530813 11.664559 16.5215663 11.4252652 16.5914337 11.8470712 16.42704 11.3928185 16.3695022 11.2670879 16.3242939 11.54694 16.3119644 11.7740663 16.2462069 11.8146246 16.1599002 11.9728019 16.0407148 11.8632945 15.9091998 11.9728019 15.8475522 12.1634257 15.7817947 12.3175471 15.6790487 11.9281878 15.6215108 12.3824404 15.4201286 11.9606343 15.4447876 12.3824404 15.3173825 12.1228674 15.3708105 12.5730643 15.1201101 12.3094355 15.1570987 12.601455 14.9721558 12.4108312 15.0379132 12.7758556 14.8242014 12.5487293 14.8981786 13.0354286 14.6433684 12.6217342 14.5365125 12.9259212 14.1912857 12.6095667 14.0762101 12.9624237 13.8542786 12.8407489 13.5501503 13.1165451 13.1103972 13.3639506 13.1556054 13.0070378 13.0199806 13.2098291 12.9994314 13.4491229 12.8432574 13.1165451 12.7117425 13.4207322 12.5062503 13.2747224 12.3706255 13.6032444 12.304868 13.3882855 12.2719893 13.6884167 12.1569137 13.7857566 11.9185429 13.6721934 11.7459295 13.5545744 11.9637511 13.8344265 11.158222 13.3720622 11.602085 13.7695333 11.343165 13.7614216 10.9157413 13.3963972 10.9897185 13.7208634 10.6239425 13.5221278 10.7143591 13.8344265 10.1965189 13.331504 10.4307799 13.8344265 9.97869727 13.7208634 9.76087562 13.282834 9.30879297 13.3558389 9.62525083 13.5626861 9.79375435 13.75331 9.67867877 13.8344265 9.38277012 13.6032444 9.3498914 13.8344265 8.91424811 13.2503874 8.93890713 13.5221278 8.47038512 13.0516519 8.41284733 13.307169 8.60600991 13.4815696 8.74574456 13.6275793 8.38818827 13.5221278 8.14570756 13.2422757 8.12104854 13.0922101 7.93199577 13.0192053 7.98542371 13.2260524 8.08816977 13.3882855 8.1374879 13.5545744 7.80048083 13.282834 7.66896585 12.9867586 7.53334106 12.6785158 7.54978042 13.1084335 7.7593824 13.4166763 7.31551941 12.9583679 7.2251029 12.4635569 6.90453519 12.4067754 7.1387962 12.6866274 7.17578477 13.0110936 6.8387777 12.5892876 6.56341827 12.2323748 6.67027419 12.7352973 6.40313441 12.3499938 6.27983913 12.3824404 6.32093756 12.4838361 5.93872221 11.9281878 6.1606537 12.3743287 5.75377933 11.9281878 5.57705612 11.3482045 5.86474506 12.2567098 5.33457541 11.4658235 5.61404469 12.1634257 5.37567383 11.7456755 5.14963249 11.3482045 5.26881792 11.7700105 5.1003144 11.5591075 4.98934863 11.6686148 5.20306043 11.9281878 4.84961399 11.8146246 4.7222089 11.3035904 4.53315613 11.5591075 4.66467107 11.7132289 4.45095928 11.8146246 4.30300496 11.3482045 4.18381953 10.9710125 4.26601638 11.6321124 3.9865471 11.2103064 3.93311915 10.8533935 3.81804356 11.311702 3.69885813 10.9912917 3.63310066 10.561374 3.49336601 10.8452819 3.49336601 11.0724082 3.21389673 10.5694857 3.21389673 10.3585826 3.06594241 10.6506022 2.93853729 10.301801 2.9097684 10.0543956 2.77825344 10.2855778 2.54810227 9.87188338 2.55632195 9.61636627 2.40836763 9.66098036 2.20287551 9.23106269 1.9686145 9.03638296 1.90696686 8.70786096 1.52064168 8.31038988 1.32336924 7.97781205 1.41378578 7.83991395 1.2411724 7.53572692 1.09321807 7.48300117 0.912385005 7.30454477 0.920604691 7.07741841 0.809638948 6.97602274 0.838407842 6.7002265 0.727442099 6.52582594 0.464412186 6.16891315 0.583597619 6.00668005 0.419203922 5.71060469 0.275359439 5.62137647 0.38221534 5.27663118 0.300018493 5.20362626 0.143844483 5.01705824 0.147954325 4.86293681 0.0739771627 4.77370859 0.0534279507 4.52224731"></polygon>
                    <polygon id="Shape" fill="#424848" points="17.0188572 9.19861606 17.2818872 8.52940457 17.6723222 8.00214701 18.1696131 7.10986504 18.7244418 6.16891315 18.954593 6.42443026 19.0039111 6.65561241 19.0039111 6.83001297 19.0039111 7.23559568 18.9217143 6.93140865 18.8682863 6.59477499 18.8847257 7.19909326 18.876506 7.4748895 18.77376 7.06119512 18.77376 7.68173669 18.5970367 7.34104719 18.642245 8.237385 18.5477186 7.98186789 18.5189497 7.56411772 18.5394989 8.44017635 18.4531922 8.13598932 18.4038741 7.90075134 18.3915446 8.51318128 18.4285332 8.67947017 18.4285332 8.88226152 18.2230411 8.3874506 18.354556 9.19861606 18.1285147 8.99988054 18.120295 8.6713585 18.0833064 8.37528314 18.2024919 9.36896078 18.0093293 8.91065232 17.9435718 8.30227825 17.9148029 8.90254065 18.0545375 9.36896078 18.1655033 9.90432996 18.0093293 9.57175214 17.7093108 9.02827133 17.8120568 9.36896078 17.5325875 9.04855046 17.8120568 9.70153861 17.4503907 9.36490495 17.7010911 9.83132508 17.3229856 9.61231043 17.651773 10.0868422 17.1133836 9.67314781"></polygon>
                    <polygon id="Shape" fill="#898989" points="10.8910823 12.0498626 10.8910823 11.6077774 10.8910823 11.1616364 11.0431465 10.7560537 11.2239795 11.6077774 11.2239795 10.4924249 11.3637142 11.5509958 11.4911193 12.4473336 11.5445472 12.9299771 11.6103047 12.3783846 11.5650964 10.9142309 11.6883917 11.7091731 11.811687 12.4027195 11.811687 13.0516519 11.7007212 13.3355598 11.3513846 12.7880231 11.1952106 12.2567098 11.1171236 11.9160203 11.0842449 12.4432778"></polygon>
                    <polygon id="Shape" fill="#898989" points="12.4446027 11.2386971 12.4446027 10.0868422 12.7158523 12.1025883 12.7651704 11.3968744 12.855587 10.0868422 12.855587 11.2143621 13.0692987 10.0868422 13.1227267 11.1454131 13.2254728 9.90027417 13.2830105 11.5104376 13.2830105 12.2932122 13.061079 11.5104376 13.061079 12.2202073 12.8638066 11.4252652 12.7857196 12.5406177 12.5432389 11.9079086"></polygon>
                </g>
            </g>
        </g>
    </g>
</svg>